<?xml version="1.0" encoding="UTF-8" standalone="no"?>
<!-- Created with Inkscape (http://www.inkscape.org/) -->

<svg
   xmlns:dc="http://purl.org/dc/elements/1.1/"
   xmlns:cc="http://creativecommons.org/ns#"
   xmlns:rdf="http://www.w3.org/1999/02/22-rdf-syntax-ns#"
   xmlns:svg="http://www.w3.org/2000/svg"
   xmlns="http://www.w3.org/2000/svg"
   xmlns:sodipodi="http://sodipodi.sourceforge.net/DTD/sodipodi-0.dtd"
   xmlns:inkscape="http://www.inkscape.org/namespaces/inkscape"
   width="744.09448819"
   height="1052.3622047"
   id="svg2"
   version="1.1"
   inkscape:version="0.48.1 r9760"
   sodipodi:docname="panel00.svg">
  <defs
     id="defs4" />
  <sodipodi:namedview
     id="base"
     pagecolor="#ffffff"
     bordercolor="#666666"
     borderopacity="1.0"
     inkscape:pageopacity="0.0"
     inkscape:pageshadow="2"
     inkscape:zoom="1"
     inkscape:cx="330.87051"
     inkscape:cy="477.27344"
     inkscape:document-units="px"
     inkscape:current-layer="layer1"
     showgrid="false"
     showguides="true"
     inkscape:guide-bbox="true"
     inkscape:window-width="1434"
     inkscape:window-height="938"
     inkscape:window-x="66"
     inkscape:window-y="24"
     inkscape:window-maximized="0" />
  <metadata
     id="metadata7">
    <rdf:RDF>
      <cc:Work
         rdf:about="">
        <dc:format>image/svg+xml</dc:format>
        <dc:type
           rdf:resource="http://purl.org/dc/dcmitype/StillImage" />
        <dc:title></dc:title>
      </cc:Work>
    </rdf:RDF>
  </metadata>
  <g
     inkscape:label="Layer 1"
     inkscape:groupmode="layer"
     id="layer1">
    <rect
       style="fill:#012840;fill-opacity:1;stroke:#f2e6ce;stroke-width:20;stroke-linecap:round;stroke-linejoin:miter;stroke-miterlimit:4;stroke-opacity:1;stroke-dasharray:none"
       id="rect2985"
       width="600"
       height="600"
       x="110"
       y="242.36218" />
    <flowRoot
       xml:space="preserve"
       id="flowRoot3784"
       style="font-size:144px;font-style:normal;font-variant:normal;font-weight:normal;font-stretch:normal;line-height:125%;letter-spacing:0px;word-spacing:0px;fill:#f30b55;fill-opacity:1;stroke:#f2e6ce;stroke-opacity:1;font-family:Arial;-inkscape-font-specification:Arial"
       transform="translate(-8.5714286,-11.428571)"><flowRegion
         id="flowRegion3786"><rect
           id="rect3788"
           width="142.85715"
           height="177.14287"
           x="351.42856"
           y="526.64789"
           style="font-size:144px;fill:#f30b55;fill-opacity:1;stroke:#f2e6ce;stroke-opacity:1" /></flowRegion><flowPara
         id="flowPara3790"
         style="font-style:normal;font-variant:normal;font-weight:normal;font-stretch:normal;font-family:Verdana;-inkscape-font-specification:Verdana" /></flowRoot>    <flowRoot
       xml:space="preserve"
       id="flowRoot3927"
       style="font-size:40px;font-style:normal;font-variant:normal;font-weight:bold;font-stretch:normal;line-height:125%;letter-spacing:0px;word-spacing:0px;fill:#f2e6ce;fill-opacity:1;stroke:#54717f;stroke-width:1;stroke-miterlimit:4;stroke-opacity:1;stroke-dasharray:none;font-family:Impact;-inkscape-font-specification:Impact Bold"
       transform="translate(-48.510657,-29.06506)"><flowRegion
         id="flowRegion3929"><rect
           id="rect3931"
           width="434.93271"
           height="147.52104"
           x="344.63968"
           y="288.0506"
           style="font-style:normal;font-variant:normal;font-weight:bold;font-stretch:normal;fill:#f2e6ce;fill-opacity:1;stroke:#54717f;stroke-width:1;stroke-miterlimit:4;stroke-opacity:1;stroke-dasharray:none;font-family:Impact;-inkscape-font-specification:Impact Bold" /></flowRegion><flowPara
         id="flowPara3933"
         style="font-size:64px;stroke-width:1;stroke-miterlimit:4;stroke-dasharray:none">Pick a location and a radius</flowPara></flowRoot>    <flowRoot
       xml:space="preserve"
       id="flowRoot3935"
       style="fill:black;stroke:none;stroke-opacity:1;stroke-width:1px;stroke-linejoin:miter;stroke-linecap:butt;fill-opacity:1;font-family:Impact;font-style:italic;font-weight:bold;font-size:24px;line-height:125%;letter-spacing:0px;word-spacing:0px;-inkscape-font-specification:Impact Bold Italic;font-stretch:normal;font-variant:normal"><flowRegion
         id="flowRegion3937"><rect
           id="rect3939"
           width="367.53085"
           height="63.586655"
           x="235.27061"
           y="342.73514"
           style="-inkscape-font-specification:Impact Bold Italic;font-family:Impact;font-weight:bold;font-style:italic;font-stretch:normal;font-variant:normal;font-size:24px" /></flowRegion><flowPara
         id="flowPara3941"></flowPara></flowRoot>    <text
       xml:space="preserve"
       style="font-size:48px;font-style:normal;font-variant:normal;font-weight:normal;font-stretch:normal;line-height:125%;letter-spacing:0px;word-spacing:0px;fill:#000000;fill-opacity:1;stroke:none;font-family:Impact;-inkscape-font-specification:Impact Bold"
       x="296.12903"
       y="374.71326"
       id="text3943"
       sodipodi:linespacing="125%"><tspan
         sodipodi:role="line"
         id="tspan3945"
         x="296.12903"
         y="374.71326"
         style="fill:#54717f;fill-opacity:1">pinpoint and radius</tspan></text>
    <text
       xml:space="preserve"
       style="font-size:40px;font-style:italic;font-variant:normal;font-weight:bold;font-stretch:normal;line-height:125%;letter-spacing:0px;word-spacing:0px;fill:#000000;fill-opacity:1;stroke:none;font-family:URW Chancery L;-inkscape-font-specification:URW Chancery L Bold Italic"
       x="294.85727"
       y="417.95218"
       id="text3947"
       sodipodi:linespacing="125%"><tspan
         sodipodi:role="line"
         id="tspan3949"
         x="294.85727"
         y="417.95218"
         style="font-size:43px;font-style:normal;font-variant:normal;font-weight:bold;font-stretch:normal;fill:#010326;fill-opacity:1;font-family:Impact;-inkscape-font-specification:Impact Bold">anywhere in the world</tspan></text>
    <path
       sodipodi:type="arc"
       style="fill:#010326;fill-opacity:1;stroke:#54717f;stroke-width:1;stroke-linecap:round;stroke-linejoin:round;stroke-miterlimit:4;stroke-opacity:1;stroke-dasharray:none"
       id="path3993"
       sodipodi:cx="325.56366"
       sodipodi:cy="652.4021"
       sodipodi:rx="136.07544"
       sodipodi:ry="141.79823"
       d="M 461.6391,652.4021 A 136.07544,141.79823 0 1 1 276.24652,520.24431 l 49.31714,132.15779 z"
       transform="matrix(1.4344646,-0.29508641,0.28317711,1.3765714,-312.24932,-193.78101)"
       sodipodi:start="0"
       sodipodi:end="4.3415205" />
    <g
       id="g3989"
       transform="translate(-12.065617,19.728267)">
      <path
         style="fill:#f30b55;fill-opacity:1;stroke:#f2e6ce;stroke-width:4;stroke-miterlimit:4;stroke-opacity:1;stroke-dasharray:none"
         inkscape:transform-center-y="108.06427"
         inkscape:transform-center-x="-33.59483"
         inkscape:connector-curvature="0"
         d="m 378.62928,515.01679 c -3.82643,-4.39476 -8.34811,-3.47129 -13.56169,-8.3126 -2.58678,-2.40217 -2.34562,-17.35724 -2.34562,-17.35724 0,0 -0.19823,-12.96694 2.45693,-15.6248 1.83541,-1.83262 5.05927,-2.30762 6.93665,-4.15226 0.0178,-0.0129 0.0302,-0.025 0.0434,-0.0417 0.4059,-0.40611 0.73469,-0.88425 0.97752,-1.45131 0.0304,-0.0597 0.0628,-0.10604 0.0839,-0.16505 0.1645,-0.4322 0.25371,-0.93909 0.30048,-1.48514 0.0132,-0.13997 0.0798,-0.25805 0.0801,-0.39797 3.7e-4,-0.0251 -0.0137,-0.0459 -0.0169,-0.072 0.004,-0.038 0.0172,-0.0668 0.0173,-0.10485 1.9e-4,-0.093 -0.0712,-0.13993 -0.0806,-0.22473 -0.21785,-2.55598 -2.2955,-4.58128 -4.90548,-4.58043 l -31.21801,0.0101 c -2.61001,8.5e-4 -4.68736,2.02752 -4.90152,4.58358 -0.01,0.0839 -0.0812,0.13089 -0.0814,0.22485 2.8e-4,0.0378 0.0139,0.0668 0.0162,0.10518 -0.004,0.0261 -0.0167,0.047 -0.0172,0.0721 -7e-5,0.13994 0.0681,0.25796 0.0812,0.39795 0.0462,0.545 0.13534,1.05298 0.30053,1.4849 0.021,0.059 0.0549,0.10499 0.0851,0.16495 0.24127,0.56691 0.57134,1.04483 0.97749,1.4507 0.0125,0.0167 0.0252,0.0291 0.042,0.0423 1.87862,1.84441 5.10277,2.31637 6.93937,4.14778 2.65784,2.65613 2.46704,15.62319 2.46704,15.62319 0,0 0.25088,14.9549 -2.33436,17.35875 -5.20941,4.84471 -9.73174,3.92418 -13.5543,8.32139 -2.707,3.11489 -2.20918,8.66473 -2.20918,8.66473 l 25.671,-0.008 0.007,22.621 1.92448,13.74038 0.457,-1.3e-4 1.91654,-13.74158 -0.007,-22.62101 25.666,-0.008 c 0,0 0.49322,-5.55017 -2.21487,-8.66325 z"
         id="path3910" />
      <path
         inkscape:transform-center-y="6.5000055"
         inkscape:transform-center-x="9.9999996"
         transform="matrix(0.3992821,0,0,0.41743129,225.62355,416.7501)"
         d="m 342,411.36218 c 0,12.15027 -10.29745,22 -23,22 -12.70255,0 -23,-9.84973 -23,-22 0,-12.15026 10.29745,-22 23,-22 12.70255,0 23,9.84974 23,22 z"
         sodipodi:ry="22"
         sodipodi:rx="23"
         sodipodi:cy="411.36218"
         sodipodi:cx="319"
         id="path3923"
         style="fill:#f30b55;fill-opacity:1;stroke:#f2e6ce;stroke-width:9.79777718;stroke-linecap:round;stroke-linejoin:round;stroke-miterlimit:4;stroke-opacity:1;stroke-dasharray:none"
         sodipodi:type="arc" />
    </g>
  </g>
</svg>
